<?xml version="1.0" encoding="UTF-8" standalone="no"?>
<svg
   xmlns:dc="http://purl.org/dc/elements/1.1/"
   xmlns:cc="http://creativecommons.org/ns#"
   xmlns:rdf="http://www.w3.org/1999/02/22-rdf-syntax-ns#"
   xmlns:svg="http://www.w3.org/2000/svg"
   xmlns="http://www.w3.org/2000/svg"
   xmlns:sodipodi="http://sodipodi.sourceforge.net/DTD/sodipodi-0.dtd"
   xmlns:inkscape="http://www.inkscape.org/namespaces/inkscape"
   version="1.1"
   x="0px"
   y="0px"
   viewBox="0 0 90 112.5"
   style="enable-background:new 0 0 90 90;"
   xml:space="preserve"
   id="svg22"
   sodipodi:docname="noun_Map_458073.svg"
   inkscape:version="0.92.2 5c3e80d, 2017-08-06"><metadata
     id="metadata28"><rdf:RDF><cc:Work
         rdf:about=""><dc:format>image/svg+xml</dc:format><dc:type
           rdf:resource="http://purl.org/dc/dcmitype/StillImage" /></cc:Work></rdf:RDF></metadata><defs
     id="defs26" /><sodipodi:namedview
     pagecolor="#ffffff"
     bordercolor="#666666"
     borderopacity="1"
     objecttolerance="10"
     gridtolerance="10"
     guidetolerance="10"
     inkscape:pageopacity="0"
     inkscape:pageshadow="2"
     inkscape:window-width="704"
     inkscape:window-height="485"
     id="namedview24"
     showgrid="false"
     inkscape:zoom="2.0977778"
     inkscape:cx="-25.550847"
     inkscape:cy="56.25"
     inkscape:window-x="0"
     inkscape:window-y="0"
     inkscape:window-maximized="0"
     inkscape:current-layer="svg22" /><g
     id="g16"><path
       d="M86.6,0.2C86.1,0,85.6,0,85.1,0.4l-25.8,19l-27.9-19c0,0-0.1,0-0.1,0c0,0,0,0-0.1-0.1c-0.1,0-0.2,0-0.3-0.1   c-0.1,0-0.2-0.1-0.4-0.1c-0.1,0-0.2,0-0.4,0.1c-0.1,0-0.2,0-0.3,0.1c0,0,0,0.1-0.1,0.1c0,0-0.1,0-0.1,0L3.2,20   c-0.4,0.3-0.6,0.7-0.6,1.2v67.4c0,0.5,0.3,1,0.8,1.3c0.2,0.1,0.4,0.2,0.7,0.2c0.3,0,0.6-0.1,0.8-0.3l25.8-18.5l28,18.6   c0,0,0.1,0,0.1,0c0,0,0,0,0.1,0.1c0.2,0.1,0.4,0.2,0.7,0.2c0.2,0,0.5-0.1,0.7-0.2c0,0,0-0.1,0.1-0.1c0,0,0.1,0,0.1,0l26.6-19.1   c0.4-0.3,0.6-0.7,0.6-1.2V1.5C87.4,1,87.1,0.5,86.6,0.2z M29.2,68.6L5.5,85.7V21.8L29.2,4.3V68.6z M58,85.8L32,68.6V39.1l0.2,0   c1.5,0,2.9,0.3,4.1,0.8c0.4,0.2,0.7,0.4,1.1,0.6c0.2,0.1,0.5,0.2,0.7,0.2c0.5,0,1-0.3,1.2-0.7c0.4-0.7,0.2-1.6-0.5-2   c-0.4-0.3-0.9-0.5-1.4-0.7c-1.7-0.7-3.6-1.1-5.5-1.1v-32L58,21.9V85.8z M84.5,68.6L60.8,85.7V65.8c0.1,0,0.2,0,0.3,0   c1.9,0,3.9-0.5,5.8-1.4c0.7-0.3,1-1.2,0.7-1.9c-0.3-0.7-1.2-1-1.9-0.7c-1.7,0.8-3.3,1.1-4.9,1.1V21.8L84.5,4.3V68.6z"
       id="path2" /><path
       d="M14.2,56.6c0.1,0,0.3,0,0.4,0c0.6,0,1.2-0.4,1.4-1.1c0.5-1.9,1.1-3.6,1.8-5.2c0.3-0.7,0-1.6-0.7-1.9   c-0.7-0.3-1.6,0-1.9,0.7c-0.8,1.7-1.4,3.6-2,5.6C13,55.6,13.5,56.4,14.2,56.6z"
       id="path4" /><path
       d="M20,45.4c0.4,0,0.8-0.2,1.1-0.5c0.7-0.8,1.4-1.5,2.1-2.2c0.8-0.7,1.7-1.3,2.7-1.8c0.7-0.4,1-1.2,0.6-1.9   c-0.4-0.7-1.2-1-1.9-0.6c-1.1,0.6-2.2,1.4-3.2,2.2c-0.9,0.7-1.7,1.6-2.4,2.5c-0.5,0.6-0.4,1.5,0.2,2C19.3,45.2,19.7,45.4,20,45.4z"
       id="path6" /><path
       d="M45.1,50.5c0.2,0.5,0.8,0.8,1.3,0.8c0.2,0,0.4,0,0.6-0.1c0.7-0.3,1-1.2,0.7-1.9c-0.9-1.9-2-4.1-3.4-6.2   c-0.5-0.6-1.3-0.8-2-0.4c-0.6,0.5-0.8,1.3-0.4,2C43.2,46.6,44.2,48.7,45.1,50.5z"
       id="path8" /><path
       d="M52.7,62.4c0.3,0.2,0.6,0.4,1,0.4c0.4,0,0.8-0.2,1.1-0.5c0.5-0.6,0.5-1.5-0.1-2c-1.4-1.2-2.6-2.9-3.9-5   c-0.4-0.7-1.3-0.9-2-0.5c-0.7,0.4-0.9,1.3-0.5,2C49.6,59.2,51.1,61,52.7,62.4z"
       id="path10" /><path
       d="M76,53.3c-0.7-0.4-1.6-0.2-2,0.5c-0.9,1.5-2,3-3.3,4.3c-0.5,0.6-0.5,1.5,0,2c0.3,0.3,0.6,0.4,1,0.4c0.4,0,0.7-0.1,1-0.4   c1.4-1.4,2.6-3.1,3.7-4.8C76.9,54.6,76.7,53.7,76,53.3z"
       id="path12" /><path
       d="M73.3,47.8L71,51.3c-0.4,0.7-0.3,1.5,0.4,2c0.2,0.2,0.5,0.2,0.8,0.2c0.5,0,0.9-0.2,1.2-0.6l2.1-3.1c1,0.9,2,1.8,3.1,2.6   c0.3,0.2,0.6,0.3,0.9,0.3c0.4,0,0.8-0.2,1.1-0.6c0.5-0.6,0.4-1.5-0.3-2c-1.1-0.9-2.2-1.8-3.2-2.7l2.5-3.7c0.4-0.7,0.3-1.5-0.4-2   c-0.7-0.4-1.5-0.3-2,0.4L75,45.4c-0.9-0.9-1.9-1.8-2.8-2.7c-0.5-0.6-1.5-0.6-2,0c-0.6,0.5-0.6,1.5,0,2   C71.2,45.8,72.2,46.8,73.3,47.8z"
       id="path14" /></g></svg>